<?xml version="1.0" encoding="utf-8"?>
<svg version="1.1" id="Layer_1"
xmlns="http://www.w3.org/2000/svg"
xmlns:xlink="http://www.w3.org/1999/xlink"
xmlns:author="http://www.sothink.com"
width="116px" height="164px"
xml:space="preserve">
<g id="PathID_3103" transform="matrix(0.0352941, 0, 0, 0.0352941, 0, 37.8)">
<path style="fill:#FFFFFF;fill-opacity:1" d="M32 -344l0 -124l180 0l0 -180l124 0l0 180l180 0l0 124l-180 0l0 180l-124 0l0 -180l-180 0l0 0" />
</g>
<g id="PathID_3104" transform="matrix(0.0352941, 0, 0, 0.0352941, 48, 37.8)">
<path style="fill:#FFFFFF;fill-opacity:1" d="M512 -534.5l0 269.5q0 92 -10 134q-10 42 -41.5 78.5q-31.5 36.5 -76 52.5q-44.5 16 -99 16q-72.5 0 -120.5 -16.5q-48 -17 -76.5 -52.5q-28.5 -35.5 -40.5 -74.5q-12 -39.5 -12 -125l0 -282q0 -111.5 19 -167q19.5 -55.5 76.5 -89q57.5 -33.5 139 -33.5q66 0 118.5 23.5q52.5 23 78.5 56.5q26 33.5 35.5 75.5q9 42 9 134l0 0M308 -201.5l0 -401.5q0 -64.5 -6 -80.5q-5.5 -16.5 -27.5 -16.5q-21 0 -27.5 17.5q-7 17 -7 79.5l0 395.5q0 70.5 6.5 85q6 14.5 27.5 14.5q21 0 27.5 -17q6.5 -17 6.5 -76.5l0 0" />
</g>
<g id="PathID_3105" transform="matrix(0.0352941, 0, 0, 0.0352941, 0, 84)">
<path style="fill:#FFFFFF;fill-opacity:1" d="M228 -808l120 0l0 808l-204 0l0 -433q0 -93.5 -4.5 -112.5q-4 -19 -24 -29q-19.5 -9.5 -88 -9.5l-19.5 0l0 -95q145 -31.5 220 -129l0 0" />
</g>
</svg>
